<svg width="620" height="228" viewBox="0 0 620 228" fill="none" xmlns="http://www.w3.org/2000/svg">
  <path d="M27.7263 0.115618C70.6404 0.563959 112.616 6.6502 152.965 21.7802C188.472 35.0945 220.968 53.9315 251.111 76.7887C268.161 89.7159 284.749 103.257 301.555 116.509C303.016 117.66 304.576 118.685 306.051 119.821C310.089 122.937 314.127 122.717 317.998 119.634C327.344 112.19 336.654 104.703 345.93 97.1711C379.048 70.2706 413.808 45.9585 453.172 28.8199C477.979 17.987 503.985 10.1341 530.644 5.42622C554.681 1.20616 579.086 -0.560178 603.48 0.154474C612.701 0.413017 618.469 4.1761 619.624 11.0327C620.076 14.3671 620.121 17.7439 619.757 21.089C616.534 61.6595 607.157 100.662 589.129 137.302C576.616 162.733 560.039 185.09 537.059 202.179C517.162 216.974 494.883 225.3 470.056 227.41C431.251 230.708 397.145 218.746 366.765 195.671C350.042 182.968 334.554 168.642 318.479 155.084C312.836 150.326 310.737 150.205 305.2 154.935C292.416 165.844 279.904 177.073 267.029 187.872C246.791 204.848 224.365 218.031 198.349 223.801C143.229 236.027 96.3424 221.679 58.7227 179.11C37.6848 155.304 24.7306 127.064 15.051 97.2085C7.61431 74.0452 2.78877 50.1248 0.664049 25.8915C0.314825 22.0582 0 18.204 0 14.3594C0 5.84094 5.4283 0.330822 13.8949 0.138035C18.5014 0.0266965 23.1153 0.115618 27.7263 0.115618ZM161.071 187.739C178.284 187.723 192.495 184.944 206.171 179.716C227.761 171.462 246.148 158.22 262.82 142.46C266.783 138.714 266.409 135.048 261.864 131.5C258.239 128.669 254.41 126.098 250.796 123.257C220.216 99.1588 186.479 79.3561 150.524 64.4003C126.269 54.3126 101.252 46.8029 75.2439 42.9427C66.3818 41.7168 57.4629 40.9436 48.5219 40.6263C42.5156 40.355 39.9042 43.1863 40.4636 49.1321C41.0287 55.3066 42.0106 61.4359 43.4025 67.4782C50.1387 96.326 61.2899 123.212 79.9618 146.536C101.365 173.27 129.156 187.269 161.071 187.739ZM460.404 187.862C464.711 187.253 472.929 186.656 480.875 184.858C507.383 178.863 528.044 163.898 544.144 142.33C560.215 120.799 570.175 96.4702 576.467 70.565C578.169 63.2008 579.418 55.7394 580.206 48.2227C580.73 43.7176 578.614 41.653 574.089 40.9154C572.497 40.6081 570.871 40.5263 569.256 40.6726C557.801 42.1021 546.224 42.9674 534.936 45.2629C499.184 52.5365 465.595 65.7954 433.35 82.7554C407.027 96.6017 383.247 114.155 359.644 132.012C355.184 135.386 354.774 138.866 358.919 142.559C366.713 149.501 374.501 156.549 382.956 162.631C404.859 178.393 429.295 187.268 460.404 187.862Z" fill="black"/>
</svg>
